<svg id="Layer_1" data-name="Layer 1" xmlns="http://www.w3.org/2000/svg" xmlns:xlink="http://www.w3.org/1999/xlink" viewBox="0 0 1024 1024"><defs><style>.cls-1{fill:url(#linear-gradient);}.cls-2{fill:#fff;}</style><linearGradient id="linear-gradient" x1="768.04" y1="955.48" x2="255.96" y2="68.52" gradientUnits="userSpaceOnUse"><stop offset="0" stop-color="#108286"/><stop offset="1" stop-color="#3fa9ad"/></linearGradient></defs><title>nbc-green-white</title><circle class="cls-1" cx="512" cy="512" r="512"/><polygon class="cls-2" points="763.7 493 763.7 532.5 862 532.5 862 595.5 763.7 595.5 763.7 787 596.4 787 378.2 417.5 378.2 787 260.3 787 260.3 595.5 162 595.5 162 532.5 260.3 532.5 260.3 493 162 493 162 430 260.3 430 260.3 237 409.3 237 645.8 637.5 645.8 237 763.7 237 763.7 430 862 430 862 493 763.7 493"/></svg>