<?xml version="1.0" encoding="utf-8"?>
<!-- Generator: Adobe Illustrator 24.0.1, SVG Export Plug-In . SVG Version: 6.00 Build 0)  -->
<svg version="1.1" id="Layer_1" xmlns="http://www.w3.org/2000/svg" xmlns:xlink="http://www.w3.org/1999/xlink" x="0px" y="0px"
	 width="990.6px" height="958.8px" viewBox="0 0 990.6 958.8" style="enable-background:new 0 0 990.6 958.8;" xml:space="preserve"
	>
<style type="text/css">
	.st0{opacity:0.38;}
	.st1{opacity:0.6;}
	.st2{fill:url(#SVGID_1_);}
	.st3{fill:url(#SVGID_2_);}
	.st4{fill:url(#SVGID_3_);}
	.st5{fill:url(#SVGID_4_);}
	.st6{fill:url(#SVGID_5_);}
	.st7{fill:url(#SVGID_6_);}
	.st8{fill:url(#SVGID_7_);}
	.st9{fill:url(#SVGID_8_);}
	.st10{fill:url(#SVGID_9_);}
	.st11{fill:url(#SVGID_10_);}
	.st12{fill:url(#SVGID_11_);}
	.st13{fill:url(#SVGID_12_);}
	.st14{fill:url(#SVGID_13_);}
	.st15{fill:url(#SVGID_14_);}
	.st16{fill:url(#SVGID_15_);}
	.st17{fill:url(#SVGID_16_);}
	.st18{fill:url(#SVGID_17_);}
	.st19{fill:url(#SVGID_18_);}
	.st20{fill:url(#SVGID_19_);}
	.st21{fill:url(#SVGID_20_);}
	.st22{fill:url(#SVGID_21_);}
	.st23{fill:url(#SVGID_22_);}
	.st24{fill:url(#SVGID_23_);}
	.st25{fill:url(#SVGID_24_);}
	.st26{fill:url(#SVGID_25_);}
	.st27{fill:url(#SVGID_26_);}
	.st28{fill:url(#SVGID_27_);}
	.st29{fill:url(#SVGID_28_);}
</style>
<title>IEO Pic</title>
<g class="st0">
	<g class="st1">
		
			<linearGradient id="SVGID_1_" gradientUnits="userSpaceOnUse" x1="650.4" y1="115.33" x2="1004.6" y2="115.33" gradientTransform="matrix(1 0 0 -1 -16 897.28)">
			<stop  offset="0" style="stop-color:#A78126"/>
			<stop  offset="0.15" style="stop-color:#B38B30"/>
			<stop  offset="0.5" style="stop-color:#E2B559"/>
			<stop  offset="1" style="stop-color:#E2B559"/>
		</linearGradient>
		<path class="st2" d="M939.6,685.5c-32.3-11.1-77.8-18-128.2-18c-50.5,0-96,6.9-128.2,18h-48.8v153.1c0,31.9,79.3,57.8,177.1,57.8
			c96.7,0,175.2-25.3,177-56.8h0.1V685.5H939.6z"/>
		
			<linearGradient id="SVGID_2_" gradientUnits="userSpaceOnUse" x1="693.3992" y1="115.23" x2="989.5881" y2="115.23" gradientTransform="matrix(1 0 0 -1 -16 897.28)">
			<stop  offset="0" style="stop-color:#A78126"/>
			<stop  offset="0.15" style="stop-color:#B38B30"/>
			<stop  offset="0.5" style="stop-color:#E2B559"/>
			<stop  offset="1" style="stop-color:#E2B559"/>
		</linearGradient>
		<path class="st3" d="M716.6,676.5v211c27.4,5.7,59.8,9,94.7,9c39.5,0,76-4.2,105.5-11.4V679c-29.5-7.2-65.9-11.4-105.5-11.4
			C776.5,667.6,744,670.8,716.6,676.5z"/>
		
			<linearGradient id="SVGID_3_" gradientUnits="userSpaceOnUse" x1="634.3" y1="272.4" x2="988.3" y2="272.4" gradientTransform="matrix(1 0 0 -1 0 958)">
			<stop  offset="0" style="stop-color:#EDC064"/>
			<stop  offset="1" style="stop-color:#E2B559"/>
		</linearGradient>
		<ellipse class="st4" cx="811.3" cy="685.6" rx="177" ry="57.8"/>
		
			<linearGradient id="SVGID_4_" gradientUnits="userSpaceOnUse" x1="811.27" y1="315.9277" x2="811.27" y2="204.3513" gradientTransform="matrix(1 0 0 -1 3.000000e-02 981.41)">
			<stop  offset="0" style="stop-color:#A5833B"/>
			<stop  offset="1" style="stop-color:#EDC064"/>
		</linearGradient>
		<ellipse class="st5" cx="811.3" cy="685.6" rx="132.2" ry="39.8"/>
		
			<linearGradient id="SVGID_5_" gradientUnits="userSpaceOnUse" x1="827.2999" y1="314.9991" x2="827.2999" y2="99.7234" gradientTransform="matrix(1 0 0 -1 -16 897.28)">
			<stop  offset="0" style="stop-color:#EDC064"/>
			<stop  offset="0.5" style="stop-color:#D6AB4F"/>
			<stop  offset="0.85" style="stop-color:#CAA045"/>
			<stop  offset="1" style="stop-color:#CAA045"/>
		</linearGradient>
		<path class="st6" d="M917,644.2c-26.6-9.1-64.1-14.8-105.7-14.8c-41.6,0-79.1,5.7-105.7,14.8h-40.2V677
			c0,26.3,65.3,47.7,145.9,47.7c79.7,0,144.4-20.9,145.8-46.8h0.1v-33.7H917z"/>
		
			<linearGradient id="SVGID_6_" gradientUnits="userSpaceOnUse" x1="716.9721" y1="220.23" x2="961.009" y2="220.23" gradientTransform="matrix(1 0 0 -1 -16 897.28)">
			<stop  offset="0" style="stop-color:#A78126"/>
			<stop  offset="0.15" style="stop-color:#B38B30"/>
			<stop  offset="0.5" style="stop-color:#E2B559"/>
			<stop  offset="1" style="stop-color:#E2B559"/>
		</linearGradient>
		<path class="st7" d="M733.3,636.8v80.5c22.6,4.7,49.3,7.4,78,7.4c32.6,0,62.7-3.5,86.9-9.4v-76.5c-24.3-5.9-54.3-9.4-86.9-9.4
			C782.6,629.4,755.8,632.1,733.3,636.8z"/>
		
			<linearGradient id="SVGID_7_" gradientUnits="userSpaceOnUse" x1="665.37" y1="337.21" x2="957.1699" y2="337.21" gradientTransform="matrix(1 0 0 -1 3.000000e-02 981.41)">
			<stop  offset="0" style="stop-color:#EDC064"/>
			<stop  offset="1" style="stop-color:#E2B559"/>
		</linearGradient>
		<ellipse class="st8" cx="811.3" cy="644.2" rx="145.9" ry="47.7"/>
		
			<linearGradient id="SVGID_8_" gradientUnits="userSpaceOnUse" x1="756.4097" y1="337.21" x2="1061.4376" y2="337.21" gradientTransform="matrix(1 0 0 -1 3.000000e-02 981.41)">
			<stop  offset="0" style="stop-color:#BE963B"/>
			<stop  offset="0.5" style="stop-color:#D6AB4F"/>
			<stop  offset="0.85" style="stop-color:#BE963B"/>
			<stop  offset="1" style="stop-color:#B38B30"/>
		</linearGradient>
		<ellipse class="st9" cx="811.3" cy="644.2" rx="108.9" ry="32.8"/>
		
			<linearGradient id="SVGID_9_" gradientUnits="userSpaceOnUse" x1="811.5699" y1="329.423" x2="811.5699" y2="257.5527" gradientTransform="matrix(1 0 0 -1 3.000000e-02 981.41)">
			<stop  offset="0" style="stop-color:#B38B30"/>
			<stop  offset="0.25" style="stop-color:#BE963B"/>
			<stop  offset="0.5" style="stop-color:#D6AB4F"/>
			<stop  offset="1" style="stop-color:#BE963B"/>
		</linearGradient>
		<ellipse class="st10" cx="811.6" cy="654.7" rx="68.3" ry="20.6"/>
	</g>
</g>
<g class="st1">
	
		<linearGradient id="SVGID_10_" gradientUnits="userSpaceOnUse" x1="17.9" y1="57.88" x2="382.5" y2="57.88" gradientTransform="matrix(1 0 0 -1 -16 897.28)">
		<stop  offset="0" style="stop-color:#A78126"/>
		<stop  offset="0.15" style="stop-color:#B38B30"/>
		<stop  offset="0.5" style="stop-color:#E2B559"/>
		<stop  offset="1" style="stop-color:#E2B559"/>
	</linearGradient>
	<path class="st11" d="M316.3,740c-33.2-11.4-80.1-18.5-132.1-18.5s-98.8,7.1-132,18.5H1.9v157.7c0,32.9,81.6,59.6,182.3,59.6
		c99.6,0,180.4-26.1,182.2-58.4h0.1V740H316.3z"/>
	
		<linearGradient id="SVGID_11_" gradientUnits="userSpaceOnUse" x1="62.3467" y1="57.88" x2="367.3584" y2="57.88" gradientTransform="matrix(1 0 0 -1 -16 897.28)">
		<stop  offset="0" style="stop-color:#A78126"/>
		<stop  offset="0.15" style="stop-color:#B38B30"/>
		<stop  offset="0.5" style="stop-color:#E2B559"/>
		<stop  offset="1" style="stop-color:#E2B559"/>
	</linearGradient>
	<path class="st12" d="M86.7,730.8v217.3c28.2,5.8,61.6,9.2,97.5,9.2c40.7,0,78.3-4.4,108.6-11.7V733.3
		c-30.3-7.4-67.9-11.8-108.6-11.8C148.4,721.5,114.9,724.9,86.7,730.8z"/>
	
		<linearGradient id="SVGID_12_" gradientUnits="userSpaceOnUse" x1="1.9" y1="217.9" x2="366.5" y2="217.9" gradientTransform="matrix(1 0 0 -1 0 958)">
		<stop  offset="0" style="stop-color:#EDC064"/>
		<stop  offset="1" style="stop-color:#E2B559"/>
	</linearGradient>
	<ellipse class="st13" cx="184.2" cy="740.1" rx="182.3" ry="59.6"/>
	
		<linearGradient id="SVGID_13_" gradientUnits="userSpaceOnUse" x1="184.17" y1="262.0254" x2="184.17" y2="147.1254" gradientTransform="matrix(1 0 0 -1 3.000000e-02 981.41)">
		<stop  offset="0" style="stop-color:#A5833B"/>
		<stop  offset="1" style="stop-color:#EDC064"/>
	</linearGradient>
	<ellipse class="st14" cx="184.2" cy="740.1" rx="136.1" ry="41"/>
	
		<linearGradient id="SVGID_14_" gradientUnits="userSpaceOnUse" x1="200.2" y1="263.5751" x2="200.2" y2="41.8869" gradientTransform="matrix(1 0 0 -1 -16 897.28)">
		<stop  offset="0" style="stop-color:#EDC064"/>
		<stop  offset="0.5" style="stop-color:#D6AB4F"/>
		<stop  offset="0.85" style="stop-color:#CAA045"/>
		<stop  offset="1" style="stop-color:#CAA045"/>
	</linearGradient>
	<path class="st15" d="M293.1,697.5c-27.4-9.4-66-15.3-108.8-15.3s-81.5,5.9-108.8,15.3H34v33.8c0,27.1,67.3,49.1,150.2,49.1
		c82,0,148.7-21.5,150.1-48.2h0.1v-34.7L293.1,697.5L293.1,697.5z"/>
	
		<linearGradient id="SVGID_15_" gradientUnits="userSpaceOnUse" x1="86.6219" y1="166.08" x2="337.928" y2="166.08" gradientTransform="matrix(1 0 0 -1 -16 897.28)">
		<stop  offset="0" style="stop-color:#A78126"/>
		<stop  offset="0.15" style="stop-color:#B38B30"/>
		<stop  offset="0.5" style="stop-color:#E2B559"/>
		<stop  offset="1" style="stop-color:#E2B559"/>
	</linearGradient>
	<path class="st16" d="M103.9,689.8v82.9c23.3,4.8,50.8,7.6,80.3,7.6c33.6,0,64.5-3.6,89.5-9.7v-78.8c-25-6.1-55.9-9.7-89.5-9.7
		C154.7,682.2,127.1,685,103.9,689.8z"/>
	
		<linearGradient id="SVGID_16_" gradientUnits="userSpaceOnUse" x1="33.97" y1="283.91" x2="334.37" y2="283.91" gradientTransform="matrix(1 0 0 -1 3.000000e-02 981.41)">
		<stop  offset="0" style="stop-color:#EDC064"/>
		<stop  offset="1" style="stop-color:#E2B559"/>
	</linearGradient>
	<ellipse class="st17" cx="184.2" cy="697.5" rx="150.2" ry="49.1"/>
	
		<linearGradient id="SVGID_17_" gradientUnits="userSpaceOnUse" x1="127.7117" y1="283.91" x2="441.8256" y2="283.91" gradientTransform="matrix(1 0 0 -1 3.000000e-02 981.41)">
		<stop  offset="0" style="stop-color:#BE963B"/>
		<stop  offset="0.5" style="stop-color:#D6AB4F"/>
		<stop  offset="0.85" style="stop-color:#BE963B"/>
		<stop  offset="1" style="stop-color:#B38B30"/>
	</linearGradient>
	<ellipse class="st18" cx="184.2" cy="697.5" rx="112.2" ry="33.8"/>
	
		<linearGradient id="SVGID_18_" gradientUnits="userSpaceOnUse" x1="184.47" y1="275.9227" x2="184.47" y2="201.9116" gradientTransform="matrix(1 0 0 -1 3.000000e-02 981.41)">
		<stop  offset="0" style="stop-color:#B38B30"/>
		<stop  offset="0.25" style="stop-color:#BE963B"/>
		<stop  offset="0.5" style="stop-color:#D6AB4F"/>
		<stop  offset="1" style="stop-color:#BE963B"/>
	</linearGradient>
	<ellipse class="st19" cx="184.5" cy="708.3" rx="70.4" ry="21.2"/>
</g>
<linearGradient id="SVGID_19_" gradientUnits="userSpaceOnUse" x1="273.7" y1="124.13" x2="759.7" y2="124.13" gradientTransform="matrix(1 0 0 -1 -16 897.28)">
	<stop  offset="0" style="stop-color:#A78126"/>
	<stop  offset="0.15" style="stop-color:#B38B30"/>
	<stop  offset="0.5" style="stop-color:#E2B559"/>
	<stop  offset="1" style="stop-color:#E2B559"/>
</linearGradient>
<path class="st20" d="M676.7,640.7C632.5,625.5,570,616,500.7,616s-131.8,9.5-176,24.7h-67v210.2c0,43.8,108.8,79.4,243,79.4
	c132.7,0,240.4-34.7,242.9-77.9h0.1V640.7H676.7z"/>
<linearGradient id="SVGID_20_" gradientUnits="userSpaceOnUse" x1="332.94" y1="124.13" x2="739.41" y2="124.13" gradientTransform="matrix(1 0 0 -1 -16 897.28)">
	<stop  offset="0" style="stop-color:#A78126"/>
	<stop  offset="0.15" style="stop-color:#B38B30"/>
	<stop  offset="0.5" style="stop-color:#E2B559"/>
	<stop  offset="1" style="stop-color:#E2B559"/>
</linearGradient>
<path class="st21" d="M370.8,628.3V918c37.6,7.8,82.1,12.3,129.9,12.3c54.3,0,104.3-5.8,144.8-15.6v-283
	C605,621.9,555,616,500.7,616C452.9,616,408.3,620.6,370.8,628.3z"/>
<linearGradient id="SVGID_21_" gradientUnits="userSpaceOnUse" x1="257.7" y1="317.3" x2="743.7" y2="317.3" gradientTransform="matrix(1 0 0 -1 0 958)">
	<stop  offset="0" style="stop-color:#EDC064"/>
	<stop  offset="1" style="stop-color:#E2B559"/>
</linearGradient>
<ellipse class="st22" cx="500.7" cy="640.7" rx="243" ry="79.4"/>
<linearGradient id="SVGID_22_" gradientUnits="userSpaceOnUse" x1="500.67" y1="368.21" x2="500.67" y2="215.09" gradientTransform="matrix(1 0 0 -1 3.000000e-02 981.41)">
	<stop  offset="0" style="stop-color:#A5833B"/>
	<stop  offset="1" style="stop-color:#EDC064"/>
</linearGradient>
<ellipse class="st23" cx="500.7" cy="640.7" rx="181.4" ry="54.7"/>
<linearGradient id="SVGID_23_" gradientUnits="userSpaceOnUse" x1="516.7" y1="398.26" x2="516.7" y2="102.83" gradientTransform="matrix(1 0 0 -1 -16 897.28)">
	<stop  offset="0" style="stop-color:#EDC064"/>
	<stop  offset="0.5" style="stop-color:#D6AB4F"/>
	<stop  offset="0.85" style="stop-color:#CAA045"/>
	<stop  offset="1" style="stop-color:#CAA045"/>
</linearGradient>
<path class="st24" d="M645.7,584c-36.5-12.5-87.9-20.3-145-20.3s-108.6,7.8-145,20.3h-55.2v45c0,36.1,89.6,65.4,200.2,65.4
	c109.3,0,198.1-28.6,200.1-64.2h0.1V584H645.7z"/>
<linearGradient id="SVGID_24_" gradientUnits="userSpaceOnUse" x1="365.29" y1="268.181" x2="700.19" y2="268.181" gradientTransform="matrix(1 0 0 -1 -16 897.28)">
	<stop  offset="0" style="stop-color:#A78126"/>
	<stop  offset="0.15" style="stop-color:#B38B30"/>
	<stop  offset="0.5" style="stop-color:#E2B559"/>
	<stop  offset="1" style="stop-color:#E2B559"/>
</linearGradient>
<path class="st25" d="M393.6,573.8v110.5c31,6.4,67.7,10.2,107.1,10.2c44.7,0,86-4.8,119.3-12.9v-105
	c-33.3-8.1-74.6-12.9-119.3-12.9C461.3,563.6,424.6,567.4,393.6,573.8z"/>
<linearGradient id="SVGID_25_" gradientUnits="userSpaceOnUse" x1="300.47" y1="397.41" x2="700.87" y2="397.41" gradientTransform="matrix(1 0 0 -1 3.000000e-02 981.41)">
	<stop  offset="0" style="stop-color:#EDC064"/>
	<stop  offset="1" style="stop-color:#E2B559"/>
</linearGradient>
<ellipse class="st26" cx="500.7" cy="584" rx="200.2" ry="65.4"/>
<linearGradient id="SVGID_26_" gradientUnits="userSpaceOnUse" x1="425.38" y1="397.41" x2="843.98" y2="397.41" gradientTransform="matrix(1 0 0 -1 3.000000e-02 981.41)">
	<stop  offset="0" style="stop-color:#BE963B"/>
	<stop  offset="0.5" style="stop-color:#D6AB4F"/>
	<stop  offset="0.85" style="stop-color:#BE963B"/>
	<stop  offset="1" style="stop-color:#B38B30"/>
</linearGradient>
<ellipse class="st27" cx="500.7" cy="584" rx="149.5" ry="45"/>
<linearGradient id="SVGID_27_" gradientUnits="userSpaceOnUse" x1="500.97" y1="386.73" x2="500.97" y2="288.1" gradientTransform="matrix(1 0 0 -1 3.000000e-02 981.41)">
	<stop  offset="0" style="stop-color:#B38B30"/>
	<stop  offset="0.25" style="stop-color:#BE963B"/>
	<stop  offset="0.5" style="stop-color:#D6AB4F"/>
	<stop  offset="1" style="stop-color:#BE963B"/>
</linearGradient>
<ellipse class="st28" cx="501" cy="598.4" rx="93.8" ry="28.3"/>
<linearGradient id="SVGID_28_" gradientUnits="userSpaceOnUse" x1="501.85" y1="757.94" x2="501.85" y2="-198.1799" gradientTransform="matrix(1 0 0 -1 -16 897.28)">
	<stop  offset="0" style="stop-color:#D5AF64;stop-opacity:0"/>
	<stop  offset="1" style="stop-color:#EDC064"/>
</linearGradient>
<path class="st29" d="M650.2,584L701,109.6L270.7,81.1L351.2,584c0,0,8.7,47.9,155.6,45C598.5,618,623.4,627.1,650.2,584z"/>
</svg>
