<?xml version="1.0" encoding="utf-8"?>
<!-- Generator: Adobe Illustrator 24.0.1, SVG Export Plug-In . SVG Version: 6.00 Build 0)  -->
<svg version="1.1" id="Layer_1" xmlns="http://www.w3.org/2000/svg" xmlns:xlink="http://www.w3.org/1999/xlink" x="0px" y="0px"
	 viewBox="0 0 400 400" style="enable-background:new 0 0 400 400;" xml:space="preserve">
<style type="text/css">
	.st0{fill:#CAA045;}
</style>
<path id="LEAR" class="st0" d="M7.03,12.92l53.99,94.85c0.73,1.27,1.13,2.8,1.13,4.33l0.27,121.78c0,2.33,0.87,4.47,2.53,6.13
	l43.79,43.99c5.53,5.53,14.86,1.6,14.86-6.13c-0.07-60.59-0.13-121.32-0.27-182.04c0-1.53-0.4-3.07-1.13-4.33L81.08,19.72
	c-1.2-2-3.13-3.53-5.33-4.07L16.69,0.25C12.02-0.88,7.23,1.92,6.16,6.58C5.56,8.72,5.89,11.05,7.03,12.92z"/>
<path id="LEYE" class="st0" d="M133.41,96.31v248.97c0,1.87,0.73,3.53,2,4.8L183.34,398c2.67,2.67,6.93,2.67,9.6,0
	c1.27-1.27,2-2.93,2-4.8V94.37c0-3.73-3.07-6.8-6.8-6.8l0,0h-45.93C137.27,87.57,133.41,91.37,133.41,96.31L133.41,96.31z"/>
<path id="REYE" class="st0" d="M266.52,96.31v248.97c0,1.87-0.73,3.53-2,4.8l-47.86,47.79c-2.67,2.67-6.93,2.67-9.6,0
	c-1.27-1.27-2-2.93-2-4.8V94.37c0-3.73,3.07-6.8,6.8-6.8c0,0,0,0,0.07,0h45.93C262.59,87.57,266.52,91.37,266.52,96.31L266.52,96.31
	z"/>
<path id="REAR" class="st0" d="M392.98,12.92l-53.99,94.85c-0.73,1.27-1.2,2.8-1.2,4.33l-0.27,121.78c0,2.33-0.87,4.47-2.53,6.13
	l-43.66,43.99c-5.53,5.53-14.86,1.6-14.86-6.13c0.07-60.59,0.13-121.32,0.27-181.98c0-1.53,0.4-3.07,1.2-4.33l40.93-71.79
	c1.2-2,3.07-3.53,5.33-4.07l59.06-15.4C390.64-1.68,396.77,6.32,392.98,12.92z"/>
</svg>
