<?xml version="1.0" encoding="utf-8"?>
<!-- Generator: Adobe Illustrator 24.0.1, SVG Export Plug-In . SVG Version: 6.00 Build 0)  -->
<svg version="1.1" id="Layer_1" xmlns="http://www.w3.org/2000/svg" xmlns:xlink="http://www.w3.org/1999/xlink" x="0px" y="0px"
	 width="512px" height="512px" viewBox="0 0 512 512" style="enable-background:new 0 0 512 512;" xml:space="preserve">
<style type="text/css">
	.st0{opacity:0.5;}
	.st1{fill:#43AEBC;}
	.st2{fill:#38C1BA;}
	.st3{fill:url(#SVGID_1_);}
	.st4{fill:#257B86;}
</style>
<g class="st0">
	<path class="st1" d="M475.7,278.7c3.1-3.1,3.1-8.2,0-11.3c-3.1-3.1-8.2-3.1-11.3,0L438,293.7V264h32c4.4,0,8-3.6,8-8s-3.6-8-8-8
		h-32v-29.7l26.3,26.3c3.1,3.1,8.2,3.1,11.3,0c3.1-3.1,3.1-8.2,0-11.3L438,195.7V99c0-4.4-3.6-8-8-8s-8,3.6-8,8v80.7l-39.2-39.2
		l35.8-35.8c3.1-3.1,3.1-8.2,0-11.3c-3.1-3.1-8.2-3.1-11.3,0l-35.8,35.8L332.3,90H413c4.4,0,8-3.6,8-8s-3.6-8-8-8h-96.7l-37.7-37.7
		c-3.1-3.1-8.2-3.1-11.3,0c-3.1,3.1-3.1,8.2,0,11.3L293.7,74H264V42c0-4.4-3.6-8-8-8s-8,3.6-8,8v32h-29.7l26.3-26.3
		c3.1-3.1,3.1-8.2,0-11.3s-8.2-3.1-11.3,0L195.7,74H99c-4.4,0-8,3.6-8,8s3.6,8,8,8h80.7l-39.2,39.2l-35.8-35.8
		c-3.1-3.1-8.2-3.1-11.3,0c-3.1,3.1-3.1,8.2,0,11.3l35.8,35.8L90,179.7V99c0-4.4-3.6-8-8-8s-8,3.6-8,8v96.7l-37.7,37.7
		c-3.1,3.1-3.1,8.2,0,11.3s8.2,3.1,11.3,0L74,218.3V248H42c-4.4,0-8,3.6-8,8s3.6,8,8,8h32v29.7l-26.3-26.3c-3.1-3.1-8.2-3.1-11.3,0
		s-3.1,8.2,0,11.3L74,316.3V413c0,4.4,3.6,8,8,8s8-3.6,8-8v-80.7l39.2,39.2l-35.8,35.8c-3.1,3.1-3.1,8.2,0,11.3
		c3.1,3.1,8.2,3.1,11.3,0l35.8-35.8l39.2,39.2H99c-4.4,0-8,3.6-8,8s3.6,8,8,8h96.7l37.7,37.7c1.6,1.6,3.6,2.3,5.7,2.3
		c7.1,0,10.7-8.6,5.7-13.7L218.3,438H248v32c0,4.4,3.6,8,8,8s8-3.6,8-8v-32h29.7l-26.3,26.3c-5.1,5.1-1.4,13.7,5.7,13.7
		c2,0,4.1-0.8,5.7-2.3l37.7-37.7H413c4.4,0,8-3.6,8-8s-3.6-8-8-8h-80.7l39.2-39.2l35.8,35.8c3.1,3.1,8.2,3.1,11.3,0
		c3.1-3.1,3.1-8.2,0-11.3l-35.8-35.8l39.2-39.2V413c0,4.4,3.6,8,8,8s8-3.6,8-8v-96.7L475.7,278.7z M371.5,360.2l-73.1-73.1
		c-3.1-3.1-8.2-3.1-11.3,0c-3.1,3.1-3.1,8.2,0,11.3l73.1,73.1L309.7,422H264V320c0-4.4-3.6-8-8-8s-8,3.6-8,8v102h-45.7l-50.5-50.5
		l72.8-72.8c3.1-3.1,3.1-8.2,0-11.3c-3.1-3.1-8.2-3.1-11.3,0l-72.8,72.8L90,309.7V264h112.4c4.4,0,8-3.6,8-8s-3.6-8-8-8H90v-45.7
		l50.5-50.5l72.8,72.8c1.6,1.6,3.6,2.3,5.7,2.3c7.1,0,10.7-8.6,5.7-13.7l-72.8-72.8L202.3,90H248v102c0,4.4,3.6,8,8,8s8-3.6,8-8V90
		h45.7l50.5,50.5l-73.1,73.1c-5.1,5.1-1.4,13.7,5.7,13.7c2,0,4.1-0.8,5.7-2.3l73.1-73.1l50.5,50.5V248H309.7c-4.4,0-8,3.6-8,8
		s3.6,8,8,8H422v45.7L371.5,360.2z"/>
	<path class="st1" d="M22.8,246.7c4.2,1.2,8.7-1.2,9.9-5.5l40-140c1.2-4.2-1.2-8.7-5.5-9.9c-4.2-1.2-8.7,1.2-9.9,5.5l-40,140
		C16.1,241.1,18.6,245.5,22.8,246.7z"/>
	<path class="st1" d="M99,73c1.7,0-7.5,2.5,142.2-40.3c4.2-1.2,6.7-5.6,5.5-9.9c-1.2-4.2-5.6-6.7-9.9-5.5l-140,40
		C87.9,59.8,89.8,73,99,73z"/>
	<path class="st1" d="M270.8,32.7C420.7,75.5,411.3,73,413,73c9.2,0,11.1-13.2,2.2-15.7l-140-40c-4.2-1.2-8.7,1.2-9.9,5.5
		C264.1,27.1,266.6,31.5,270.8,32.7L270.8,32.7z"/>
	<path class="st1" d="M479.3,240.3c1.2,4.2,5.6,6.7,9.9,5.5c4.2-1.2,6.7-5.7,5.5-9.9l-40-139.1c-1.2-4.2-5.7-6.7-9.9-5.5
		c-4.2,1.2-6.7,5.7-5.5,9.9L479.3,240.3z"/>
	<path class="st1" d="M32.7,270.8c-1.2-4.2-5.6-6.7-9.9-5.5c-4.2,1.2-6.7,5.6-5.5,9.9l40,140c1,3.5,4.2,5.8,7.7,5.8
		c5.3,0,9.2-5.1,7.7-10.2L32.7,270.8z"/>
	<path class="st1" d="M241.2,479.3l-140-40c-4.2-1.2-8.7,1.2-9.9,5.5c-1.2,4.2,1.2,8.7,5.5,9.9l140,40c4.2,1.2,8.7-1.2,9.9-5.5
		C247.9,484.9,245.4,480.5,241.2,479.3L241.2,479.3z"/>
	<path class="st1" d="M410.8,439.3l-140,40c-4.2,1.2-6.7,5.6-5.5,9.9s5.7,6.7,9.9,5.5l140-40c4.2-1.2,6.7-5.6,5.5-9.9
		C419.5,440.6,415.1,438.1,410.8,439.3z"/>
	<path class="st1" d="M489.2,266.2c-4.2-1.2-8.7,1.2-9.9,5.5l-40,139.1c-1.5,5.1,2.4,10.2,7.7,10.2c3.5,0,6.7-2.3,7.7-5.8l40-139.1
		C495.9,271.8,493.5,267.4,489.2,266.2L489.2,266.2z"/>
</g>
<path class="st2" d="M496,231h-18c-8.8,0-16,7.2-16,16v18c0,8.8,7.2,16,16,16h18c8.8,0,16-7.2,16-16v-18
	C512,238.2,504.8,231,496,231z"/>
<path class="st2" d="M265,0h-18c-8.8,0-16,7.2-16,16v18c0,8.8,7.2,16,16,16h18c8.8,0,16-7.2,16-16V16C281,7.2,273.8,0,265,0z"/>
<path class="st2" d="M34,231H16c-8.8,0-16,7.2-16,16v18c0,8.8,7.2,16,16,16h18c8.8,0,16-7.2,16-16v-18C50,238.2,42.8,231,34,231z"/>
<path class="st2" d="M265,462h-18c-8.8,0-16,7.2-16,16v18c0,8.8,7.2,16,16,16h18c8.8,0,16-7.2,16-16v-18
	C281,469.2,273.8,462,265,462z"/>
<path class="st2" d="M91,57H73c-8.8,0-16,7.2-16,16v18c0,8.8,7.2,16,16,16h18c8.8,0,16-7.2,16-16V73C107,64.2,99.8,57,91,57z"/>
<path class="st2" d="M91,405H73c-8.8,0-16,7.2-16,16v18c0,8.8,7.2,16,16,16h18c8.8,0,16-7.2,16-16v-18C107,412.2,99.8,405,91,405z"
	/>
<path class="st2" d="M439,57h-18c-8.8,0-16,7.2-16,16v18c0,8.8,7.2,16,16,16h18c8.8,0,16-7.2,16-16V73C455,64.2,447.8,57,439,57z"/>
<path class="st2" d="M439,405h-18c-8.8,0-16,7.2-16,16v18c0,8.8,7.2,16,16,16h18c8.8,0,16-7.2,16-16v-18
	C455,412.2,447.8,405,439,405z"/>
<linearGradient id="SVGID_1_" gradientUnits="userSpaceOnUse" x1="294.0059" y1="206.537" x2="218.9941" y2="336.463" gradientTransform="matrix(1 0 0 -1 0 528)">
	<stop  offset="0" style="stop-color:#3DA0AD"/>
	<stop  offset="1" style="stop-color:#43AEBC"/>
</linearGradient>
<circle class="st3" cx="256.5" cy="256.5" r="75"/>
<path id="LEAR" class="st4" d="M212.9,223l12.1,21.2c0.2,0.3,0.3,0.6,0.3,1l0.1,27.2c0,0.5,0.2,1,0.6,1.4l9.8,9.8
	c1.3,1.3,3.3,0.4,3.3-1.4c0-13.5-0.1-27.1-0.1-40.7c0-0.4-0.1-0.7-0.3-1l-9.2-16c-0.3-0.5-0.7-0.8-1.2-0.9l-13.2-3.5
	c-1.1-0.3-2.1,0.4-2.4,1.4C212.5,222,212.6,222.6,212.9,223z"/>
<path id="LEYE" class="st4" d="M241.1,241.6v55.7c0,0.4,0.2,0.8,0.5,1.1l10.7,10.7c0.6,0.6,1.6,0.6,2.2,0c0.3-0.3,0.5-0.7,0.5-1.1
	v-66.8c0-0.9-0.7-1.5-1.5-1.5l0,0h-10.3C241.9,239.7,241.1,240.5,241.1,241.6L241.1,241.6z"/>
<path id="REYE" class="st4" d="M270.8,241.6v55.7c0,0.4-0.2,0.8-0.5,1.1L259.7,309c-0.6,0.6-1.6,0.6-2.2,0c-0.3-0.3-0.5-0.7-0.5-1.1
	v-66.8c0-0.9,0.7-1.5,1.5-1.5l0,0h10.3C270,239.7,270.8,240.5,270.8,241.6L270.8,241.6z"/>
<path id="REAR" class="st4" d="M299.1,223L287,244.2c-0.2,0.3-0.3,0.6-0.3,1l-0.1,27.2c0,0.5-0.2,1-0.6,1.4l-9.8,9.8
	c-1.3,1.3-3.3,0.4-3.3-1.4c0-13.5,0.1-27.1,0.1-40.7c0-0.4,0.1-0.7,0.3-1l9.1-16c0.3-0.5,0.7-0.8,1.2-0.9l13.2-3.5
	C298.6,219.7,300,221.5,299.1,223z"/>
</svg>
