<?xml version="1.0" encoding="utf-8"?>
<!-- Generator: Adobe Illustrator 24.0.1, SVG Export Plug-In . SVG Version: 6.00 Build 0)  -->
<svg version="1.1" id="Layer_1" xmlns="http://www.w3.org/2000/svg" xmlns:xlink="http://www.w3.org/1999/xlink" x="0px" y="0px"
	 width="512px" height="512px" viewBox="0 0 512 512" style="enable-background:new 0 0 512 512;" xml:space="preserve">
<style type="text/css">
	.st0{fill:#3FA9AD;}
	.st1{fill:#38C1BA;}
	.st2{opacity:0.5;fill:#43AEBC;enable-background:new    ;}
	.st3{fill:#257B86;}
</style>
<path class="st0" d="M496,168c0,188.1,1.3,182.5-3.1,196.9c-9,29.6-36.4,51.1-68.9,51.1H88c-39.8,0-72-32.2-72-72V168
	c0-39.8,32.3-72,72-72h336C463.8,96,496,128.2,496,168z"/>
<path class="st1" d="M496,168c0,188.1,1.3,182.5-3.1,196.9c-14.5,4.4,8.4,3.1-356.9,3.1c-39.8,0-72-32.2-72-72
	c0-188.1-1.3-182.5,3.1-196.9C81.6,94.7,58.7,96,424,96C463.8,96,496,128.2,496,168z"/>
<path class="st2" d="M480,448c-11.8,0-22.2,6.4-27.7,16H400v-48h32c35.3,0,64-28.7,64-64V160c0-35.3-28.7-64-64-64h-32V48h52.3
	c5.5,9.6,15.9,16,27.7,16c17.6,0,32-14.4,32-32S497.6,0,480,0c-11.8,0-22.2,6.4-27.7,16H384c-8.8,0-16,7.2-16,16v64h-32V48
	c0-8.8-7.2-16-16-16s-16,7.2-16,16v48h-32V16c0-8.8-7.2-16-16-16s-16,7.2-16,16v80h-32V48c0-8.8-7.2-16-16-16s-16,7.2-16,16v48h-32
	V32c0-8.8-7.2-16-16-16H59.7C54.2,6.4,43.8,0,32,0C14.4,0,0,14.4,0,32s14.4,32,32,32c11.8,0,22.2-6.4,27.7-16H112v48H80
	c-35.3,0-64,28.7-64,64v192c0,35.3,28.7,64,64,64h32v48H59.7c-5.5-9.6-15.9-16-27.7-16c-17.6,0-32,14.4-32,32s14.4,32,32,32
	c11.8,0,22.2-6.4,27.7-16H128c8.8,0,16-7.2,16-16v-64h32v48c0,8.8,7.2,16,16,16s16-7.2,16-16v-48h32v80c0,8.8,7.2,16,16,16
	c8.8,0,16-7.2,16-16v-80h32v48c0,8.8,7.2,16,16,16s16-7.2,16-16v-48h32v64c0,8.8,7.2,16,16,16h68.3c5.5,9.6,15.9,16,27.7,16
	c17.6,0,32-14.4,32-32S497.6,448,480,448z M48,352V160c0-17.6,14.4-32,32-32h352c17.6,0,32,14.4,32,32v192c0,17.6-14.4,32-32,32H80
	C62.4,384,48,369.6,48,352z"/>
<g>
	<path class="st3" d="M86.6,228.2h12.3l18.9,31.8v-31.8H130v54.4h-12.2l-18.9-31.3v31.3H86.7L86.6,228.2L86.6,228.2z"/>
	<path class="st3" d="M140.3,240.1c0-10.2,7.5-11.9,12.7-11.9c0,0,17.6,0.3,24.1,1.2v10.1h-20.7c-3.9,0-3.9,2.2-3.9,4.2v6.2
		l21.1,0.7v10.1l-21.1,0.6v6.1c0,3.9,2.4,3.9,4.6,3.9h20v10.1c-5.7,0.7-23.3,1.2-23.3,1.2c-4.8,0.2-13.4-0.8-13.4-11.5v-31
		L140.3,240.1L140.3,240.1z"/>
	<path class="st3" d="M198.1,228.2l9.1,17l9.3-17H230l-16.5,27.2l16,27.1h-13.4l-8.9-16.6l-9,16.7h-13.4l16.1-27.1l-16.3-27.2
		L198.1,228.2L198.1,228.2z"/>
	<path class="st3" d="M239,228.2h22.9c11.3,0,15.7,6.2,15.7,14.7c0,4.8-2.3,10.7-7.6,11.4c5,0.9,8.8,5.6,8.8,11.9
		c0,11-5.2,16.2-16.6,16.2H239V228.2z M261.1,249.2c3,0,4.6-2,4.6-5.1c0-4.2-2.5-5.2-4.6-5.2h-10v10.4L261.1,249.2L261.1,249.2z
		 M261.6,272.1c3,0,5-1.6,5-6.3c0-3.4-1.2-6.6-5-6.6h-10.4v12.9H261.6z"/>
	<path class="st3" d="M287.8,228.2H300v54.4h-12.2V228.2z"/>
	<path class="st3" d="M308.5,228.2h41v11h-14.6v43.3h-12.2v-43.3h-14.3L308.5,228.2L308.5,228.2z"/>
	<path class="st3" d="M353,273.3c0-1.1,0.6-1.9,1.8-1.9h7.3c1.3,0,1.9,0.7,1.9,1.9v7.6c0,1.3-0.8,1.7-1.9,1.7h-7.3
		c-1,0-1.8-0.6-1.8-1.7V273.3z"/>
	<path class="st3" d="M375.8,228.2H388v54.4h-12.2V228.2z"/>
	<path class="st3" d="M420,227.9c12.8,0,22.1,2.4,22.1,27.9c0,24-8.8,27.1-22.1,27.1s-22.1-2.4-22.1-27.1
		C397.9,230.3,407.5,227.9,420,227.9z M420,271.8c7.7,0,10-2.7,10-16c0-15-2.4-16.8-10-16.8c-7.3,0-10,1.3-10,16.8
		C410.1,269.1,411.6,271.8,420,271.8z"/>
</g>
</svg>
