<?xml version="1.0" encoding="utf-8"?>
<!-- Generator: Adobe Illustrator 24.0.1, SVG Export Plug-In . SVG Version: 6.00 Build 0)  -->
<svg version="1.1" id="Layer_1" xmlns="http://www.w3.org/2000/svg" xmlns:xlink="http://www.w3.org/1999/xlink" x="0px" y="0px"
	 width="512px" height="512px" viewBox="0 0 512 512" style="enable-background:new 0 0 512 512;" xml:space="preserve">
<style type="text/css">
	.st0{opacity:0.5;}
	.st1{fill:#43AEBC;}
	.st2{fill:#38C1BA;}
	.st3{fill:url(#SVGID_1_);}
	.st4{fill:#257B86;}
</style>
<g class="st0">
	<path class="st1" d="M485,325c-4.4,0-8-3.6-8-8v-84h-35c-4.4,0-8-3.6-8-8s3.6-8,8-8h43c4.4,0,8,3.6,8,8v92
		C493,321.4,489.4,325,485,325z"/>
	<path class="st1" d="M131,121c-4.4,0-8,6.6-8,2.2V83H74c-4.4,0-8-3.6-8-8V46c0-4.4,3.6-8,8-8s8,3.6,8,8v21h49c4.4,0,8,3.6,8,8v38
		C139,117.4,135.4,121,131,121z"/>
	<path class="st1" d="M256,76c-4.4,0-8-3.6-8-8V27c0-4.4,3.6-8,8-8h89c4.4,0,8,3.6,8,8s-3.6,8-8,8h-81v33C264,72.4,260.4,76,256,76z
		"/>
	<path class="st1" d="M424,136.4h-29.9c-4.4,0-8-3.6-8-8s-4.4-8,0-8H416V92c0-4.4,3.6-8,8-8h42c4.4,0,8,3.6,8,8s-3.6,8-8,8h-34v28.4
		C432,132.8,428.4,136.4,424,136.4z"/>
	<path class="st1" d="M256,493h-84c-4.4,0-8-3.6-8-8s3.6-8,8-8h76v-33c0-4.4,3.6-8,8-8s8,3.6,8,8v41C264,489.4,260.4,493,256,493z"
		/>
	<path class="st1" d="M434,456h-56.7c-4.4,0-8-3.6-8-8v-48.3c0-4.4,3.6-8,8-8s8-4.4,8,0V440H434c4.4,0,8,3.6,8,8S438.4,456,434,456z
		"/>
	<path class="st1" d="M44,437c-4.4,0-8-3.6-8-8v-42.3c0-4.4,3.6-8,8-8h76.8c4.4,0,8,3.6,8,8s4.6,8,0.2,8H52V429
		C52,433.4,48.4,437,44,437z"/>
	<path class="st1" d="M68,264H27c-4.4,0-8-3.6-8-8v-83c0-4.4,3.6-8,8-8s8,3.6,8,8v75h33c4.4,0,8,3.6,8,8S72.4,264,68,264z"/>
</g>
<path class="st2" d="M83,0H65c-9.9,0-18,8.1-18,18v18c0,9.9,8.1,18,18,18h18c9.9,0,18-8.1,18-18V18C101,8.1,92.9,0,83,0z"/>
<path class="st2" d="M373,0h-18c-9.9,0-18,8.1-18,18v18c0,9.9,8.1,18,18,18h18c9.9,0,18-8.1,18-18V18C391,8.1,382.9,0,373,0z"/>
<path class="st2" d="M494,65h-18c-9.9,0-18,8.1-18,18v18c0,9.9,8.1,18,18,18h18c9.9,0,18-8.1,18-18V83C512,73.1,503.9,65,494,65z"/>
<path class="st2" d="M494,310h-18c-9.9,0-18,8.1-18,18v18c0,9.9,8.1,18,18,18h18c9.9,0,18-8.1,18-18v-18
	C512,318.1,503.9,310,494,310z"/>
<path class="st2" d="M462,421h-18c-9.9,0-18,8.1-18,18v18c0,9.9,8.1,18,18,18h18c9.9,0,18-8.1,18-18v-18
	C480,429.1,471.9,421,462,421z"/>
<path class="st2" d="M162,458h-18c-9.9,0-18,8.1-18,18v18c0,9.9,8.1,18,18,18h18c9.9,0,18-8.1,18-18v-18
	C180,466.1,171.9,458,162,458z"/>
<path class="st2" d="M53,421H35c-9.9,0-18,8.1-18,18v18c0,9.9,8.1,18,18,18h18c9.9,0,18-8.1,18-18v-18C71,429.1,62.9,421,53,421z"/>
<path class="st2" d="M36,127H18c-9.9,0-18,8.1-18,18v18c0,9.9,8.1,18,18,18h18c9.9,0,18-8.1,18-18v-18C54,135.1,45.9,127,36,127z"/>
<linearGradient id="SVGID_1_" gradientUnits="userSpaceOnUse" x1="350.2647" y1="109.0926" x2="162.7353" y2="433.9074" gradientTransform="matrix(1 0 0 -1 0 528)">
	<stop  offset="0" style="stop-color:#3DA0AD"/>
	<stop  offset="1" style="stop-color:#43AEBC"/>
</linearGradient>
<circle class="st3" cx="256.5" cy="256.5" r="187.5"/>
<path id="LEAR" class="st4" d="M147.4,172.7l30.2,53c0.4,0.8,0.6,1.5,0.6,2.4l0.1,68.1c0,1.3,0.5,2.5,1.4,3.4l24.4,24.6
	c3.1,3.1,8.3,0.9,8.3-3.4c0-33.8-0.1-67.8-0.1-101.7c0-0.9-0.3-1.8-0.6-2.4l-22.9-40.1c-0.6-1.1-1.8-2-3-2.3l-33-8.6
	c-2.6-0.6-5.3,0.9-5.9,3.5C146.5,170.3,146.8,171.7,147.4,172.7z"/>
<path id="LEYE" class="st4" d="M218,219.4v139.1c0,1,0.4,2,1.1,2.6l26.8,26.8c1.5,1.5,3.9,1.5,5.4,0c0.8-0.8,1.1-1.6,1.1-2.6V218.2
	c0-2.1-1.8-3.8-3.8-3.8l0,0H223C220.1,214.5,218,216.6,218,219.4L218,219.4z"/>
<path id="REYE" class="st4" d="M292.3,219.4v139.1c0,1-0.4,2-1.1,2.6l-26.7,26.7c-1.5,1.5-3.9,1.5-5.4,0c-0.8-0.8-1.1-1.6-1.1-2.6
	v-167c0-2.1,1.8-3.8,3.8-3.8l0,0h25.7C290.2,214.5,292.3,216.6,292.3,219.4L292.3,219.4z"/>
<path id="REAR" class="st4" d="M363,172.7l-30.2,53c-0.4,0.8-0.6,1.5-0.6,2.4l-0.1,68.1c0,1.3-0.5,2.5-1.4,3.4l-24.4,24.6
	c-3.1,3.1-8.3,0.9-8.3-3.4c0-33.8,0.1-67.8,0.1-101.7c0-0.9,0.3-1.8,0.6-2.4l22.8-40.1c0.6-1.1,1.8-2,3-2.3l33-8.6
	C361.6,164.6,365.1,169.1,363,172.7z"/>
</svg>
