<?xml version="1.0" encoding="utf-8"?>
<!-- Generator: Adobe Illustrator 24.0.1, SVG Export Plug-In . SVG Version: 6.00 Build 0)  -->
<svg version="1.1" id="Layer_1" xmlns="http://www.w3.org/2000/svg" xmlns:xlink="http://www.w3.org/1999/xlink" x="0px" y="0px"
	 width="512px" height="512px" viewBox="0 0 512 512" style="enable-background:new 0 0 512 512;" xml:space="preserve">
<style type="text/css">
	.st0{fill:#E2F2FE;}
	.st1{fill:#CFEBFC;}
	.st2{fill:#C27E7E;}
	.st3{fill:#535460;}
	.st4{fill:#42434D;}
	.st5{fill:#F1F8FE;}
	.st6{fill:#B87777;}
	.st7{fill:#FFFFFF;}
	.st8{fill:url(#SVGID_1_);}
</style>
<path class="st0" d="M511.9,371.5c0,75-60.8,135.7-135.7,135.7H198.7c-47.6,0-86.2-38.6-86.2-86.2c0-67.3,73.5-107.9,130.2-74.1
	c11.6-63.2,66.9-111.2,133.5-111.2C451.1,235.8,511.9,296.6,511.9,371.5z"/>
<path class="st1" d="M376.2,507.2c-193.2,0-184.3,0.9-197.8-2.4c5.3-7,12.3-14.3,21.5-20.6c41.3-28.4,77.4-1.4,138.3-10
	c80.2-11.4,169.2-82.4,160.4-161.4C541.4,401.9,476.8,507.2,376.2,507.2z"/>
<path class="st2" d="M160,114.5L31.3,245.9c-4,4.1-10.7,4.2-14.8,0.2L3.1,233c-4.1-4-4.2-10.7-0.2-14.8L131.7,86.8L160,114.5z"/>
<path class="st3" d="M210.7,88.5c2.8-2.8,2.7-7.4-0.1-10.2l-43.7-42.8c-2.8-2.8-7.4-2.7-10.2,0.1c-0.1,0.1,0.4,0.4-26.8-26.2
	c-6.5-6.4-17-6.3-23.4,0.2l-9.6,9.8c-6.4,6.5-6.3,17,0.2,23.3L123.9,69c-2.8,2.9-2.7,7.5,0.1,10.2c0.1,0.1,44.1,43.2,43.7,42.8
	c2.8,2.8,7.4,2.7,10.2-0.1c0.2-0.2,101.8,80.1,101.7,80c1.7,1.3,4,1.2,5.5-0.4l7.4-7.6c1.5-1.5,1.6-3.9,0.2-5.5L210.7,88.5z"/>
<path class="st4" d="M210.7,88.5l82.1,100c1.3,1.6,1.2,4-0.2,5.5l-7.4,7.6c-1.5,1.5-3.8,1.7-5.5,0.4l-101.7-80L210.7,88.5z"/>
<path class="st0" d="M210.6,78.3c2.8,2.8,2.9,7.3,0.1,10.2l-32.8,33.4c-2.8,2.8-7.3,2.9-10.2,0.1C149,103.8,142.9,97.8,124,79.2
	c-2.8-2.7-2.9-7.3-0.1-10.2c0.7-0.7,32.1-32.8,32.8-33.4c2.8-2.8,7.3-2.9,10.2-0.1L210.6,78.3z"/>
<path class="st5" d="M185.5,53.8c-14.7,20.6-40.4,26.6-63.2,17.8c0.9-2.5,0.5-1.5,34.4-36c2.8-2.8,7.3-2.9,10.2-0.1
	C177.2,45.7,173,41.5,185.5,53.8z"/>
<path class="st1" d="M210.7,88.5l-32.8,33.4c-2.8,2.8-7.3,2.9-10.2,0.1c-9.7-9.5-4.7-4.6-22.7-22.3c23.6,3.2,47.2-4.7,64.1-22.9
	l1.5,1.4C213.4,81.1,213.4,85.7,210.7,88.5L210.7,88.5z"/>
<path class="st6" d="M160,114.5L31.3,245.9c-4,4.1-10.7,4.2-14.8,0.2C1.9,231.8,2,232.1,0.9,229.7c21.9-4.1,42.1-14.7,58-30.6
	l92.8-92.8L160,114.5z"/>
<path class="st5" d="M464.1,268.1c-83.9-30.7-165.4,7.7-201.1,83.9c-4.1,8.7-13.5,13.5-22.9,11.5c-70.8-15.4-127.8,53-100.9,119.9
	c-16.6-15.8-26.8-38.2-26.6-63c0.5-60.4,62.5-102.3,119.1-79c5.7,2.4,12.3-0.7,14-6.6C272.1,239.9,388.8,204.1,464.1,268.1z"/>
<g>
	<path class="st7" d="M173.9,371.7c-10.7,5.4-19.5,14.3-24.8,25c-2,4.1-0.3,9,3.8,11c4.1,2,9,0.3,11-3.8c3.7-7.5,9.9-13.8,17.4-17.6
		c4.1-2,5.7-7,3.7-11.1C182.9,371.3,177.9,369.7,173.9,371.7L173.9,371.7z"/>
	<path class="st7" d="M353.8,276.4c-1.5-4.3-6.3-6.5-10.6-5c-0.9,0.3-1.8,0.7-2.7,1c-8.5,3.3-6.1,15.9,3,15.9c2,0,2.9-0.6,5.4-1.5
		C353.2,285.4,355.4,280.7,353.8,276.4z"/>
	<path class="st7" d="M311.7,290.1c-7.4,6.6-13.8,14.2-18.9,22.6c-2.4,3.9-1.1,9,2.8,11.3c3.9,2.4,9,1.1,11.3-2.8
		c4.2-7,9.5-13.3,15.7-18.8c3.4-3,3.7-8.2,0.7-11.7C320.4,287.4,315.2,287.1,311.7,290.1L311.7,290.1z"/>
</g>
<linearGradient id="SVGID_1_" gradientUnits="userSpaceOnUse" x1="462.7899" y1="18.133" x2="377.7765" y2="165.3823" gradientTransform="matrix(1 0 0 -1 0 514)">
	<stop  offset="0" style="stop-color:#108286"/>
	<stop  offset="1" style="stop-color:#3FA9AD"/>
</linearGradient>
<circle class="st8" cx="420.3" cy="422.2" r="85"/>
<polygon class="st7" points="462.1,419.1 462.1,425.6 478.4,425.6 478.4,436.1 462.1,436.1 462.1,467.9 434.3,467.9 398.1,406.6 
	398.1,467.9 378.5,467.9 378.5,436.1 362.2,436.1 362.2,425.6 378.5,425.6 378.5,419.1 362.2,419.1 362.2,408.6 378.5,408.6 
	378.5,376.6 403.2,376.6 442.5,443.1 442.5,376.6 462.1,376.6 462.1,408.6 478.4,408.6 478.4,419.1 "/>
</svg>
