<?xml version="1.0" encoding="utf-8"?>
<!-- Generator: Adobe Illustrator 24.0.1, SVG Export Plug-In . SVG Version: 6.00 Build 0)  -->
<svg version="1.1" id="Layer_1" xmlns="http://www.w3.org/2000/svg" xmlns:xlink="http://www.w3.org/1999/xlink" x="0px" y="0px"
	 width="512px" height="512px" viewBox="0 0 512 512" style="enable-background:new 0 0 512 512;" xml:space="preserve">
<style type="text/css">
	.st0{fill:#1B2626;}
	.st1{fill:#38C1BA;}
	.st2{fill:#3FA9AD;}
	.st3{fill:url(#SVGID_1_);}
	.st4{fill:#FFFFFF;}
</style>
<g>
	<path class="st0" d="M256,209c-4.4,0-8-3.6-8-8v-88c0-4.4,3.6-8,8-8s8,3.6,8,8v88C264,205.4,260.4,209,256,209z"/>
	<path class="st0" d="M256,407c-4.4,0-8-3.6-8-8v-88c0-4.4,3.6-8,8-8s8,3.6,8,8v88C264,403.4,260.4,407,256,407z"/>
	<path class="st0" d="M201,264h-88c-4.4,0-8-3.6-8-8s3.6-8,8-8h88c4.4,0,8,3.6,8,8S205.4,264,201,264z"/>
	<path class="st0" d="M399,264h-88c-4.4,0-8-3.6-8-8s3.6-8,8-8h88c4.4,0,8,3.6,8,8S403.4,264,399,264z"/>
	<path class="st0" d="M399,231c-2,0-4.1-0.8-5.7-2.3l-110-110c-3.1-3.1-3.1-8.2,0-11.3c3.1-3.1,8.2-3.1,11.3,0l110,110
		C409.7,222.4,406.1,231,399,231L399,231z"/>
	<path class="st0" d="M113,231c-7.1,0-10.7-8.6-5.7-13.7l110-110c3.1-3.1,8.2-3.1,11.3,0s3.1,8.2,0,11.3l-110,110
		C117.1,230.2,115,231,113,231z"/>
	<path class="st0" d="M289,407c-7.1,0-10.7-8.6-5.7-13.7l110-110c3.1-3.1,8.2-3.1,11.3,0c3.1,3.1,3.1,8.2,0,11.3l-110,110
		C293.1,406.2,291,407,289,407L289,407z"/>
	<path class="st0" d="M223,407c-2,0-4.1-0.8-5.7-2.3l-110-110c-3.1-3.1-3.1-8.2,0-11.3c3.1-3.1,8.2-3.1,11.3,0l110,110
		C233.7,398.4,230.1,407,223,407L223,407z"/>
	<path class="st0" d="M47,264H8c-4.4,0-8-3.6-8-8s3.6-8,8-8h39c4.4,0,8,3.6,8,8S51.4,264,47,264z"/>
	<path class="st0" d="M80,231c-4.4,0-8-3.6-8-8v-39c0-4.4,3.6-8,8-8s8,3.6,8,8v39C88,227.4,84.4,231,80,231z"/>
	<path class="st0" d="M47,231c-2,0-4.1-0.8-5.7-2.3l-29.9-29.9c-3.1-3.1-3.1-8.2,0-11.3s8.2-3.1,11.3,0l29.9,29.9
		C57.7,222.4,54.1,231,47,231z"/>
	<path class="st0" d="M17.1,326.9c-7.1,0-10.7-8.6-5.7-13.7l29.9-29.9c3.1-3.1,8.2-3.1,11.3,0s3.1,8.2,0,11.3l-29.9,29.9
		C21.2,326.1,19.1,326.9,17.1,326.9L17.1,326.9z"/>
	<path class="st0" d="M494.9,326.9c-2,0-4.1-0.8-5.7-2.3l-29.9-29.9c-3.1-3.1-3.1-8.2,0-11.3c3.1-3.1,8.2-3.1,11.3,0l29.9,29.9
		C505.6,318.3,502,326.9,494.9,326.9L494.9,326.9z"/>
	<path class="st0" d="M465,231c-7.1,0-10.7-8.6-5.7-13.7l29.9-29.9c3.1-3.1,8.2-3.1,11.3,0c3.1,3.1,3.1,8.2,0,11.3l-29.9,29.9
		C469.1,230.2,467,231,465,231L465,231z"/>
	<path class="st0" d="M289,55c-7.1,0-10.7-8.6-5.7-13.7l29.9-29.9c3.1-3.1,8.2-3.1,11.3,0c3.1,3.1,3.1,8.2,0,11.3l-29.9,29.9
		C293.1,54.2,291,55,289,55L289,55z"/>
	<path class="st0" d="M223,55c-2,0-4.1-0.8-5.7-2.3l-29.9-29.9c-3.1-3.1-3.1-8.2,0-11.3s8.2-3.1,11.3,0l29.9,29.9
		C233.7,46.4,230.1,55,223,55z"/>
	<path class="st0" d="M193.1,502.9c-7.1,0-10.7-8.6-5.7-13.7l29.9-29.9c3.1-3.1,8.2-3.1,11.3,0s3.1,8.2,0,11.3l-29.9,29.9
		C197.2,502.1,195.1,502.9,193.1,502.9L193.1,502.9z"/>
	<path class="st0" d="M318.9,502.9c-2,0-4.1-0.8-5.7-2.3l-29.9-29.9c-3.1-3.1-3.1-8.2,0-11.3c3.1-3.1,8.2-3.1,11.3,0l29.9,29.9
		C329.6,494.3,326,502.9,318.9,502.9L318.9,502.9z"/>
	<path class="st0" d="M80,336c-4.4,0-8-3.6-8-8v-39c0-4.4,3.6-8,8-8s8,3.6,8,8v39C88,332.4,84.4,336,80,336z"/>
	<path class="st0" d="M256,55c-4.4,0-8-3.6-8-8V8c0-4.4,3.6-8,8-8s8,3.6,8,8v39C264,51.4,260.4,55,256,55z"/>
	<path class="st0" d="M328,88h-39c-4.4,0-8-3.6-8-8s3.6-8,8-8h39c4.4,0,8,3.6,8,8S332.4,88,328,88z"/>
	<path class="st0" d="M223,88h-39c-4.4,0-8-3.6-8-8s3.6-8,8-8h39c4.4,0,8,3.6,8,8S227.4,88,223,88z"/>
	<path class="st0" d="M504,264h-39c-4.4,0-8-3.6-8-8s3.6-8,8-8h39c4.4,0,8,3.6,8,8S508.4,264,504,264z"/>
	<path class="st0" d="M432,336c-4.4,0-8-3.6-8-8v-39c0-4.4,3.6-8,8-8s8,3.6,8,8v39C440,332.4,436.4,336,432,336z"/>
	<path class="st0" d="M432,231c-4.4,0-8-3.6-8-8v-39c0-4.4,3.6-8,8-8s8,3.6,8,8v39C440,227.4,436.4,231,432,231z"/>
	<path class="st0" d="M256,512c-4.4,0-8-3.6-8-8v-39c0-4.4,3.6-8,8-8s8,3.6,8,8v39C264,508.4,260.4,512,256,512z"/>
	<path class="st0" d="M223,440h-39c-4.4,0-8-3.6-8-8s3.6-8,8-8h39c4.4,0,8,3.6,8,8S227.4,440,223,440z"/>
	<path class="st0" d="M328,440h-39c-4.4,0-8-3.6-8-8s3.6-8,8-8h39c4.4,0,8,3.6,8,8S332.4,440,328,440z"/>
</g>
<path class="st1" d="M475,283c0,8.8-7.2,16-16,16c-17.2,0-36.8,0-54,0c-8.8,0-16-7.2-16-16c0-17.2,0-36.8,0-54c0-8.8,7.2-16,16-16
	h54c8.8,0,16,7.2,16,16V283z"/>
<path class="st2" d="M475,229v54c0,8.8-7.2,16-16,16h-54c-8.6,0-15.6-6.8-16-15.3h44c14.4,0,26-11.6,26-26V213
	C467.8,213,475,220.2,475,229L475,229z"/>
<path class="st1" d="M299,107c0,8.8-7.2,16-16,16c-17.2,0-36.8,0-54,0c-8.8,0-16-7.2-16-16c0-17.2,0-36.8,0-54c0-8.8,7.2-16,16-16
	h54c8.8,0,16,7.2,16,16V107z"/>
<path class="st2" d="M299,53v54c0,8.8-7.2,16-16,16h-54c-8.6,0-15.6-6.8-16-15.3h44c14.4,0,26-11.6,26-26V37
	C291.8,37,299,44.2,299,53z"/>
<path class="st1" d="M123,283c0,8.8-7.2,16-16,16c-17.2,0-36.8,0-54,0c-8.8,0-16-7.2-16-16c0-17.2,0-36.8,0-54c0-8.8,7.2-16,16-16
	h54c8.8,0,16,7.2,16,16V283z"/>
<path class="st2" d="M123,229v54c0,8.8-7.2,16-16,16H53c-8.6,0-15.6-6.8-16-15.3h44c14.4,0,26-11.6,26-26V213
	C115.8,213,123,220.2,123,229L123,229z"/>
<path class="st1" d="M299,459c0,8.8-7.2,16-16,16c-17.2,0-36.8,0-54,0c-8.8,0-16-7.2-16-16c0-17.2,0-36.8,0-54c0-8.8,7.2-16,16-16
	h54c8.8,0,16,7.2,16,16V459z"/>
<path class="st2" d="M299,405v54c0,8.8-7.2,16-16,16h-54c-8.6,0-15.6-6.8-16-15.3h44c14.4,0,26-11.6,26-26V389
	C291.9,389,299,396.2,299,405z"/>
<linearGradient id="SVGID_1_" gradientUnits="userSpaceOnUse" x1="291.5055" y1="196.8679" x2="221.4945" y2="318.1321" gradientTransform="matrix(1 0 0 -1 0 514)">
	<stop  offset="0" style="stop-color:#108286"/>
	<stop  offset="1" style="stop-color:#3FA9AD"/>
</linearGradient>
<circle class="st3" cx="256.5" cy="256.5" r="70"/>
<polygon class="st4" points="290.9,253.9 290.9,259.3 304.4,259.3 304.4,267.9 290.9,267.9 290.9,294.1 268,294.1 238.2,243.6 
	238.2,294.1 222.1,294.1 222.1,267.9 208.6,267.9 208.6,259.3 222.1,259.3 222.1,253.9 208.6,253.9 208.6,245.3 222.1,245.3 
	222.1,218.9 242.5,218.9 274.8,273.7 274.8,218.9 290.9,218.9 290.9,245.3 304.4,245.3 304.4,253.9 "/>
</svg>
