<?xml version="1.0" encoding="utf-8"?>
<!-- Generator: Adobe Illustrator 24.0.1, SVG Export Plug-In . SVG Version: 6.00 Build 0)  -->
<svg version="1.1" id="Layer_1" xmlns="http://www.w3.org/2000/svg" xmlns:xlink="http://www.w3.org/1999/xlink" x="0px" y="0px"
	 width="512px" height="512px" viewBox="0 0 512 512" style="enable-background:new 0 0 512 512;" xml:space="preserve">
<style type="text/css">
	.st0{fill:#BEF4EF;}
	.st1{fill:#D3EFEA;}
	.st2{fill:#108286;}
	.st3{fill:#2FA9AD;}
	.st4{fill:#38C1BA;}
	.st5{fill:#4FEDE5;}
	.st6{fill:#1FB5A3;}
	.st7{fill:#35BCAF;}
</style>
<path class="st0" d="M142.5,69v4.1h267.7c15.1,0,27.5,12.4,27.5,27.5v340.1h46.9c15.1,0,27.5-12.4,27.5-27.5V69
	C499,69,170.5,69,142.5,69z"/>
<path class="st1" d="M0,139.1v344.3c0,15.1,12.4,27.5,27.5,27.5h384.8c15.1,0,27.5-12.4,27.5-27.5V139.1H0z"/>
<path class="st2" d="M484.5,1H142.5v70.1H512V28.5C512,13.4,499.6,1,484.5,1z"/>
<path class="st3" d="M412.3,71.1H70.2v70.1h369.5V98.5C439.7,83.4,427.4,71.1,412.3,71.1z"/>
<path class="st4" d="M477.2,43.8h-21.6c-4.3,0-7.7-3.5-7.7-7.7c0-4.3,3.5-7.7,7.7-7.7h21.6c4.3,0,7.7,3.5,7.7,7.7
	C484.9,40.3,481.4,43.8,477.2,43.8z"/>
<path class="st5" d="M404.9,113.9h-21.6c-4.3,0-7.7-3.5-7.7-7.7c0-4.3,3.5-7.7,7.7-7.7h21.6c4.3,0,7.7,3.5,7.7,7.7
	C412.6,110.4,409.2,113.9,404.9,113.9z"/>
<path class="st6" d="M144.5,1H99.7C84.6,1,72.3,13.4,72.3,28.5v42.6h72.3V1z"/>
<path class="st7" d="M72.3,71.1H27.5C12.4,71.1,0,83.4,0,98.5v42.6h72.3V71.1z"/>
<path class="st4" d="M273.8,366.7c-4.4-6-3.1-14.3,2.9-18.7l42.4-31l-42.4-31c-6-4.4-7.2-12.7-2.9-18.7c4.4-5.9,12.7-7.2,18.7-2.9
	l57.1,41.8c7.3,5.3,7.3,16.2,0,21.6l-57.1,41.8C286.5,373.9,278.2,372.6,273.8,366.7z"/>
<path class="st4" d="M147.3,369.6l-57.1-41.8c-7.3-5.3-7.3-16.2,0-21.6l57.1-41.8c6-4.4,14.3-3.1,18.7,2.9s3.1,14.3-2.9,18.7
	l-42.4,31l42.4,31c6,4.4,7.2,12.7,2.9,18.7C161.6,372.6,153.2,373.9,147.3,369.6z"/>
<path class="st4" d="M179.9,396.2c-6.6-3.3-9.3-11.3-6.1-17.9l66.3-134.5c3.3-6.6,11.3-9.3,17.9-6.1c6.6,3.3,9.3,11.3,6.1,17.9
	l-66.3,134.5C194.5,396.7,186.5,399.5,179.9,396.2z"/>
</svg>
