<?xml version="1.0" encoding="utf-8"?>
<!-- Generator: Adobe Illustrator 24.0.1, SVG Export Plug-In . SVG Version: 6.00 Build 0)  -->
<svg version="1.1" id="Layer_1" xmlns="http://www.w3.org/2000/svg" xmlns:xlink="http://www.w3.org/1999/xlink" x="0px" y="0px"
	 width="512px" height="512px" viewBox="0 0 512 512" style="enable-background:new 0 0 512 512;" xml:space="preserve">
<style type="text/css">
	.st0{fill:url(#SVGID_1_);}
	.st1{fill:#FFFFFF;}
	.st2{fill:#2F3333;}
	.st3{fill:#3C4242;}
	.st4{fill:#101919;}
	.st5{fill:#C27E7E;}
	.st6{fill:#535460;}
	.st7{fill:#42434D;}
	.st8{fill:#E2F2FE;}
	.st9{fill:#F1F8FE;}
	.st10{fill:#B87777;}
</style>
<linearGradient id="SVGID_1_" gradientUnits="userSpaceOnUse" x1="450.2626" y1="294.721" x2="340.2453" y2="485.279" gradientTransform="matrix(1 0 0 -1 0 514)">
	<stop  offset="0" style="stop-color:#108286"/>
	<stop  offset="1" style="stop-color:#3FA9AD"/>
</linearGradient>
<circle class="st0" cx="395.3" cy="124" r="110"/>
<polygon class="st1" points="449.3,119.9 449.3,128.4 470.4,128.4 470.4,141.9 449.3,141.9 449.3,183.1 413.4,183.1 366.5,103.7 
	366.5,183.1 341.2,183.1 341.2,141.9 320.1,141.9 320.1,128.4 341.2,128.4 341.2,119.9 320.1,119.9 320.1,106.4 341.2,106.4 
	341.2,64.9 373.2,64.9 424,151 424,64.9 449.3,64.9 449.3,106.4 470.4,106.4 470.4,119.9 "/>
<path class="st2" d="M495.2,188.2c-14.8,0.5-34.3,1.2-35.3,1.2s-10.3-4.1-17.9-7.6c-6-2.7-13.1-1.6-17.9,3l-32.9,31
	c-3.3,3.1-5.1,7.4-5.1,11.8v28.5l-100.9,16.1c-4.7,0.8-8.9,3.6-11.4,7.7l-28.5,47.3l-66.8,5.9c-6.8,0.6-12.5,5.4-14.3,12l-18.9,71
	l-72.1,72.1c40.5,0,436.8,0,422.6,0c9,0,16.3-7.3,16.3-16.3V204.5C512,195.3,504.4,187.9,495.2,188.2L495.2,188.2z"/>
<g>
	<path class="st3" d="M474.1,188.9L445,231.6l-59,24.5l-49.8,43.1l-76.2,3.4l13.7-22.8c2.5-4.1,6.6-6.9,11.4-7.7l100.9-16v-28.5
		c0-4.5,1.9-8.8,5.1-11.8l32.9-31c4.8-4.5,11.9-5.7,17.9-3c6.1,2.8,13.4,6,16.5,7.2C460.1,189.6,458.2,189.5,474.1,188.9
		L474.1,188.9z"/>
	<path class="st3" d="M0,0"/>
	<path class="st3" d="M245.3,327.1l-7.1,32c-34.1,8.2-24.7,5.9-40.1,9.7c-7,20.9-2.8,8.5-18.3,54.9l-80.3,64.5H73.1l72.1-72.1
		l18.9-71c1.8-6.6,7.5-11.4,14.3-12L245.3,327.1z"/>
</g>
<path class="st4" d="M446,415l8.1,73.1h-256l47.7-70.1l42.7-11.2l32.5-66l38.6,1l30.5,49.8L446,415z"/>
<path class="st5" d="M165.6,132L38.9,261.3c-4,4.1-10.5,4.1-14.6,0.2l-13.1-12.9c-4.1-4-4.1-10.5-0.2-14.6l126.7-129.3L165.6,132z"
	/>
<path class="st6" d="M215.5,106.4c2.7-2.8,2.7-7.3-0.1-10l-43-42.2c-2.8-2.7-7.3-2.7-10,0.1c-0.1,0.1,0.4,0.4-26.4-25.8
	c-6.4-6.3-16.7-6.2-23,0.2l-9.5,9.7c-6.3,6.4-6.2,16.7,0.2,23l26.4,25.8c-2.8,2.9-2.7,7.3,0.1,10c0.1,0.1,43.4,42.5,43,42.2
	c2.8,2.7,7.3,2.7,10-0.1l100.1,78.8c1.6,1.3,4,1.1,5.4-0.3l7.3-7.5c1.5-1.5,1.6-3.8,0.2-5.4L215.5,106.4z"/>
<path class="st7" d="M215.5,106.4l80.8,98.5c1.3,1.6,1.2,3.9-0.2,5.4l-7.3,7.5c-1.5,1.5-3.8,1.6-5.4,0.3l-100.1-78.8L215.5,106.4z"
	/>
<path class="st8" d="M215.4,96.4c2.8,2.7,2.8,7.2,0.1,10l-32.2,32.9c-2.7,2.8-7.2,2.8-10,0.1c-18.4-18-24.4-23.9-43-42.2
	c-2.8-2.7-2.9-7.2-0.1-10c0.7-0.7,31.6-32.2,32.2-32.9c2.7-2.8,7.2-2.8,10-0.1L215.4,96.4z"/>
<path class="st9" d="M190.7,72.3c-14.5,20.3-39.7,26.2-62.2,17.5c0.9-2.5,0.5-1.4,33.8-35.5c2.7-2.8,7.2-2.8,10-0.1
	C182.6,64.3,178.4,60.2,190.7,72.3z"/>
<path class="st10" d="M165.6,132L38.9,261.3c-4,4.1-10.5,4.1-14.6,0.2C10,247.4,10.1,247.8,9,245.4c21.5-4,41.5-14.4,57.1-30.1
	l91.3-91.3L165.6,132z"/>
<path class="st3" d="M93.5,488.1H8.1c-4.5,0-8.1-3.6-8.1-8.1s3.6-8.1,8.1-8.1h85.3c4.5,0,8.1,3.6,8.1,8.1S97.9,488.1,93.5,488.1z"/>
</svg>
