<?xml version="1.0" encoding="utf-8"?>
<!-- Generator: Adobe Illustrator 24.0.1, SVG Export Plug-In . SVG Version: 6.00 Build 0)  -->
<svg version="1.1" id="Layer_1" xmlns="http://www.w3.org/2000/svg" xmlns:xlink="http://www.w3.org/1999/xlink" x="0px" y="0px"
	 width="512px" height="512px" viewBox="0 0 512 512" style="enable-background:new 0 0 512 512;" xml:space="preserve">
<style type="text/css">
	.st0{fill:#1B2626;}
	.st1{fill:#38C1BA;}
	.st2{fill:url(#SVGID_1_);}
	.st3{fill:#FFFFFF;}
</style>
<g>
	<path class="st0" d="M485,325c-4.4,0-8-3.6-8-8v-84h-35c-4.4,0-8-3.6-8-8s3.6-8,8-8h43c4.4,0,8,3.6,8,8v92
		C493,321.4,489.4,325,485,325z"/>
	<path class="st0" d="M131,121c-4.4,0-8,6.6-8,2.2V83H74c-4.4,0-8-3.6-8-8V46c0-4.4,3.6-8,8-8s8,3.6,8,8v21h49c4.4,0,8,3.6,8,8v38
		C139,117.4,135.4,121,131,121z"/>
	<path class="st0" d="M256,76c-4.4,0-8-3.6-8-8V27c0-4.4,3.6-8,8-8h89c4.4,0,8,3.6,8,8s-3.6,8-8,8h-81v33C264,72.4,260.4,76,256,76z
		"/>
	<path class="st0" d="M424,136.4h-29.9c-4.4,0-8-3.6-8-8s-4.4-8,0-8H416V92c0-4.4,3.6-8,8-8h42c4.4,0,8,3.6,8,8s-3.6,8-8,8h-34v28.4
		C432,132.8,428.4,136.4,424,136.4z"/>
	<path class="st0" d="M256,493h-84c-4.4,0-8-3.6-8-8s3.6-8,8-8h76v-33c0-4.4,3.6-8,8-8s8,3.6,8,8v41C264,489.4,260.4,493,256,493z"
		/>
	<path class="st0" d="M434,456h-56.7c-4.4,0-8-3.6-8-8v-48.3c0-4.4,3.6-8,8-8s8-4.4,8,0V440H434c4.4,0,8,3.6,8,8S438.4,456,434,456z
		"/>
	<path class="st0" d="M44,437c-4.4,0-8-3.6-8-8v-42.3c0-4.4,3.6-8,8-8h76.8c4.4,0,8,3.6,8,8s4.6,8,0.2,8H52V429
		C52,433.4,48.4,437,44,437z"/>
	<path class="st0" d="M68,264H27c-4.4,0-8-3.6-8-8v-83c0-4.4,3.6-8,8-8s8,3.6,8,8v75h33c4.4,0,8,3.6,8,8S72.4,264,68,264z"/>
</g>
<path class="st1" d="M83,0H65c-9.9,0-18,8.1-18,18v18c0,9.9,8.1,18,18,18h18c9.9,0,18-8.1,18-18V18C101,8.1,92.9,0,83,0z"/>
<path class="st1" d="M373,0h-18c-9.9,0-18,8.1-18,18v18c0,9.9,8.1,18,18,18h18c9.9,0,18-8.1,18-18V18C391,8.1,382.9,0,373,0z"/>
<path class="st1" d="M494,65h-18c-9.9,0-18,8.1-18,18v18c0,9.9,8.1,18,18,18h18c9.9,0,18-8.1,18-18V83C512,73.1,503.9,65,494,65z"/>
<path class="st1" d="M494,310h-18c-9.9,0-18,8.1-18,18v18c0,9.9,8.1,18,18,18h18c9.9,0,18-8.1,18-18v-18
	C512,318.1,503.9,310,494,310z"/>
<path class="st1" d="M462,421h-18c-9.9,0-18,8.1-18,18v18c0,9.9,8.1,18,18,18h18c9.9,0,18-8.1,18-18v-18
	C480,429.1,471.9,421,462,421z"/>
<path class="st1" d="M162,458h-18c-9.9,0-18,8.1-18,18v18c0,9.9,8.1,18,18,18h18c9.9,0,18-8.1,18-18v-18
	C180,466.1,171.9,458,162,458z"/>
<path class="st1" d="M53,421H35c-9.9,0-18,8.1-18,18v18c0,9.9,8.1,18,18,18h18c9.9,0,18-8.1,18-18v-18C71,429.1,62.9,421,53,421z"/>
<path class="st1" d="M36,127H18c-9.9,0-18,8.1-18,18v18c0,9.9,8.1,18,18,18h18c9.9,0,18-8.1,18-18v-18C54,135.1,45.9,127,36,127z"/>
<linearGradient id="SVGID_1_" gradientUnits="userSpaceOnUse" x1="349.9148" y1="94.6595" x2="161.8852" y2="420.3405" gradientTransform="matrix(1 0 0 -1 0 514)">
	<stop  offset="0" style="stop-color:#108286"/>
	<stop  offset="1" style="stop-color:#3FA9AD"/>
</linearGradient>
<circle class="st2" cx="255.9" cy="256.5" r="188"/>
<polygon class="st3" points="348.3,249.5 348.3,264 384.4,264 384.4,287.2 348.3,287.2 348.3,357.5 286.9,357.5 206.8,221.8 
	206.8,357.5 163.5,357.5 163.5,287.2 127.4,287.2 127.4,264 163.5,264 163.5,249.5 127.4,249.5 127.4,226.4 163.5,226.4 
	163.5,155.5 218.2,155.5 305,302.6 305,155.5 348.3,155.5 348.3,226.4 384.4,226.4 384.4,249.5 "/>
</svg>
