<?xml version="1.0" encoding="utf-8"?>
<!-- Generator: Adobe Illustrator 24.0.1, SVG Export Plug-In . SVG Version: 6.00 Build 0)  -->
<svg version="1.1" id="Layer_1" xmlns="http://www.w3.org/2000/svg" xmlns:xlink="http://www.w3.org/1999/xlink" x="0px" y="0px"
	 width="512px" height="512px" viewBox="0 0 512 512" style="enable-background:new 0 0 512 512;" xml:space="preserve">
<style type="text/css">
	.st0{fill:#1B2626;}
	.st1{fill:#38C1BA;}
	.st2{fill:url(#SVGID_1_);}
	.st3{fill:#FFFFFF;}
</style>
<path class="st0" d="M346,423h-82v-47c0-4.4-3.6-8-8-8s-8,3.6-8,8v47h-82c-4.4,0-8,3.6-8,8v37c0,4.4,3.6,8,8,8s8-3.6,8-8v-29h74v29
	c0,4.4,3.6,8,8,8s8-3.6,8-8v-29h74v29c0,4.4,3.6,8,8,8s8-3.6,8-8v-37C354,426.6,350.4,423,346,423z"/>
<path class="st0" d="M468,264c4.4,0,8-3.6,8-8s-3.6-8-8-8h-29v-74h29c4.4,0,8-3.6,8-8s-3.6-8-8-8h-37c-4.4,0-8,3.6-8,8v82h-47
	c-4.4,0-8,3.6-8,8s3.6,8,8,8h47v82c0,4.4,3.6,8,8,8h37c4.4,0,8-3.6,8-8s-3.6-8-8-8h-29v-74H468z"/>
<path class="st0" d="M346,36c-4.4,0-8,3.6-8,8v29h-74V44c0-4.4-3.6-8-8-8s-8,3.6-8,8v29h-74V44c0-4.4-3.6-8-8-8s-8,3.6-8,8v37
	c0,4.4,3.6,8,8,8h82v47c0,4.4,3.6,8,8,8s8-3.6,8-8V89h82c4.4,0,8-3.6,8-8V44C354,39.6,350.4,36,346,36z"/>
<path class="st0" d="M136,248H89v-82c0-4.4-3.6-8-8-8H44c-4.4,0-8,3.6-8,8s3.6,8,8,8h29v74H44c-4.4,0-8,3.6-8,8s3.6,8,8,8h29v74H44
	c-4.4,0-8,3.6-8,8s3.6,8,8,8h37c4.4,0,8-3.6,8-8v-82h47c4.4,0,8-3.6,8-8S140.4,248,136,248z"/>
<g>
	<path class="st1" d="M264,460h-16c-9.9,0-18,8.1-18,18v16c0,9.9,8.1,18,18,18h16c9.9,0,18-8.1,18-18v-16
		C282,468.1,273.9,460,264,460z"/>
	<path class="st1" d="M174,460h-16c-9.9,0-18,8.1-18,18v16c0,9.9,8.1,18,18,18h16c9.9,0,18-8.1,18-18v-16
		C192,468.1,183.9,460,174,460z"/>
	<path class="st1" d="M354,460h-16c-9.9,0-18,8.1-18,18v16c0,9.9,8.1,18,18,18h16c9.9,0,18-8.1,18-18v-16
		C372,468.1,363.9,460,354,460z"/>
	<path class="st1" d="M494,230h-16c-9.9,0-18,8.1-18,18v16c0,9.9,8.1,18,18,18h16c9.9,0,18-8.1,18-18v-16
		C512,238.1,503.9,230,494,230z"/>
	<path class="st1" d="M494,320h-16c-9.9,0-18,8.1-18,18v16c0,9.9,8.1,18,18,18h16c9.9,0,18-8.1,18-18v-16
		C512,328.1,503.9,320,494,320z"/>
	<path class="st1" d="M494,140h-16c-9.9,0-18,8.1-18,18v16c0,9.9,8.1,18,18,18h16c9.9,0,18-8.1,18-18v-16
		C512,148.1,503.9,140,494,140z"/>
	<path class="st1" d="M264,0h-16c-9.9,0-18,8.1-18,18v16c0,9.9,8.1,18,18,18h16c9.9,0,18-8.1,18-18V18C282,8.1,273.9,0,264,0z"/>
	<path class="st1" d="M354,0h-16c-9.9,0-18,8.1-18,18v16c0,9.9,8.1,18,18,18h16c9.9,0,18-8.1,18-18V18C372,8.1,363.9,0,354,0z"/>
	<path class="st1" d="M174,0h-16c-9.9,0-18,8.1-18,18v16c0,9.9,8.1,18,18,18h16c9.9,0,18-8.1,18-18V18C192,8.1,183.9,0,174,0z"/>
	<path class="st1" d="M34,230H18c-9.9,0-18,8.1-18,18v16c0,9.9,8.1,18,18,18h16c9.9,0,18-8.1,18-18v-16C52,238.1,43.9,230,34,230z"
		/>
	<path class="st1" d="M34,140H18c-9.9,0-18,8.1-18,18v16c0,9.9,8.1,18,18,18h16c9.9,0,18-8.1,18-18v-16C52,148.1,43.9,140,34,140z"
		/>
	<path class="st1" d="M34,320H18c-9.9,0-18,8.1-18,18v16c0,9.9,8.1,18,18,18h16c9.9,0,18-8.1,18-18v-16C52,328.1,43.9,320,34,320z"
		/>
</g>
<linearGradient id="SVGID_1_" gradientUnits="userSpaceOnUse" x1="321.5102" y1="144.8975" x2="191.4898" y2="370.1025" gradientTransform="matrix(1 0 0 -1 0 514)">
	<stop  offset="0" style="stop-color:#108286"/>
	<stop  offset="1" style="stop-color:#3FA9AD"/>
</linearGradient>
<circle class="st2" cx="256.5" cy="256.5" r="130"/>
<polygon class="st3" points="320.4,251.7 320.4,261.7 345.4,261.7 345.4,277.7 320.4,277.7 320.4,326.3 277.9,326.3 222.5,232.5 
	222.5,326.3 192.6,326.3 192.6,277.7 167.6,277.7 167.6,261.7 192.6,261.7 192.6,251.7 167.6,251.7 167.6,235.7 192.6,235.7 
	192.6,186.7 230.4,186.7 290.5,288.4 290.5,186.7 320.4,186.7 320.4,235.7 345.4,235.7 345.4,251.7 "/>
</svg>
