<?xml version="1.0" encoding="utf-8"?>
<!-- Generator: Adobe Illustrator 24.0.1, SVG Export Plug-In . SVG Version: 6.00 Build 0)  -->
<svg version="1.1" id="color" xmlns="http://www.w3.org/2000/svg" xmlns:xlink="http://www.w3.org/1999/xlink" x="0px" y="0px"
	 width="512px" height="512px" viewBox="0 0 512 512" style="enable-background:new 0 0 512 512;" xml:space="preserve">
<style type="text/css">
	.st0{fill:#108286;}
	.st1{fill:#D3EFEA;}
	.st2{fill:#38C1BA;}
</style>
<path class="st0" d="M448,21.3H64c-35.3,0-64,28.7-64,64v341.3c0,35.3,28.7,64,64,64h384c35.3,0,64-28.7,64-64V85.3
	C512,50,483.3,21.3,448,21.3z"/>
<path class="st1" d="M448,448H64c-11.8,0-21.3-9.6-21.3-21.3V128h426.7v298.7C469.3,438.4,459.8,448,448,448z"/>
<g>
	<path class="st2" d="M325.3,352c-3.7,0-7.4-1.3-10.4-3.9c-6.7-5.8-7.5-15.9-1.7-22.6l23.1-26.9l-23.1-26.9
		c-5.8-6.7-5-16.8,1.7-22.6c6.7-5.8,16.8-5,22.6,1.7l32,37.3c5.1,6,5.1,14.8,0,20.8l-32,37.3C334.3,350.1,329.8,352,325.3,352
		L325.3,352z"/>
	<path class="st2" d="M186.7,352c-4.5,0-9-1.9-12.2-5.6l-32-37.3c-5.1-6-5.1-14.8,0-20.8l32-37.3c5.8-6.7,15.9-7.5,22.6-1.7
		c6.7,5.8,7.5,15.9,1.7,22.6l-23.1,26.9l23.1,26.9c5.8,6.7,5,16.8-1.7,22.6C194.1,350.7,190.4,352,186.7,352L186.7,352z"/>
	<path class="st2" d="M236.4,383.6c-8.6-2-14-10.6-12-19.2l32-138.7c2-8.6,10.6-13.9,19.2-12c8.6,2,14,10.6,12,19.2l-32,138.7
		C253.7,380,245.2,385.6,236.4,383.6z"/>
</g>
</svg>
